PathFileType	4	(X/Y/Z)	s01c0001.trc
DataRate	CameraRate	NumFrames	NumMarkers	Units	OrigDataRate	OrigDataStartFrame	OrigNumFrames
200	200	4	49	mm	200	1000	2000
Frame#	Time	racr			lacr			c7			jug			rlel			rdr			llel			ldr			s2			lic			ric			lasi			rasi			rpsi			lpsi			rgt			lgt			rth1			rth2			rth3			rth4			rlfc			rmfc			rsh1			rsh2			rsh3			rsh4			rlmal			rmmal			rcal			rtoe			rmt5			rmt1			lth1			lth2			lth4			lth3			llfc			lmfc			lsh1			lsh2			lsh3			lsh4			llmal			lmmal			lcal			ltoe			lmt1			lmt5			
		X1	Y1	Z1	X2	Y2	Z2	X3	Y3	Z3	X4	Y4	Z4	X5	Y5	Z5	X6	Y6	Z6	X7	Y7	Z7	X8	Y8	Z8	X9	Y9	Z9	X10	Y10	Z10	X11	Y11	Z11	X12	Y12	Z12	X13	Y13	Z13	X14	Y14	Z14	X15	Y15	Z15	X16	Y16	Z16	X17	Y17	Z17	X18	Y18	Z18	X19	Y19	Z19	X20	Y20	Z20	X21	Y21	Z21	X22	Y22	Z22	X23	Y23	Z23	X24	Y24	Z24	X25	Y25	Z25	X26	Y26	Z26	X27	Y27	Z27	X28	Y28	Z28	X29	Y29	Z29	X30	Y30	Z30	X31	Y31	Z31	X32	Y32	Z32	X33	Y33	Z33	X34	Y34	Z34	X35	Y35	Z35	X36	Y36	Z36	X37	Y37	Z37	X38	Y38	Z38	X39	Y39	Z39	X40	Y40	Z40	X41	Y41	Z41	X42	Y42	Z42	X43	Y43	Z43	X44	Y44	Z44	X45	Y45	Z45	X46	Y46	Z46	X47	Y47	Z47	X48	Y48	Z48	X49	Y49	Z49	
1000	5.0000	497.424927	1501.265137	-349.011932	307.518829	1482.497559	-689.294800	379.569702	1530.792847	-497.813110	509.996613	1459.135376	-567.461548	557.494019	1253.272827	-184.920364	716.464966	1057.040527	-73.915855	210.193039	1209.900513	-783.565063	215.833435	1003.093384	-953.779785	339.704254	1020.300110	-461.158234	367.640808	1089.732544	-678.963745	543.935120	1061.836548	-394.359894	419.755157	1025.611328	-681.379639	572.292358	1014.342468	-446.727936	382.133423	1050.760986	-423.746613	326.503418	1054.259888	-513.679810	515.463257	928.133728	-361.194855	336.197632	922.633240	-683.889404	536.751587	808.832642	-350.874084	542.116760	726.766541	-360.515717	535.796570	637.203186	-375.629517	579.946655	730.460083	-400.151550	505.178314	517.295471	-388.442108	444.925781	492.885956	-477.119049	490.779541	401.842712	-339.270050	485.375122	317.571869	-344.161163	470.397064	229.554749	-353.212677	510.387177	317.169373	-400.563293	447.219666	99.101952	-371.512543	447.593964	122.341423	-459.403107	393.735321	67.860176	-415.850189	651.935547	91.634003	-492.285858	581.429199	50.542328	-391.166779	561.335144	62.255402	-504.547424	320.607147	803.177307	-689.933044	340.338013	717.005127	-690.204102	390.189453	727.083801	-710.011169	356.346436	633.849426	-677.731689	364.057037	520.291077	-654.647766	391.975525	489.701416	-547.463989	305.628723	409.880554	-666.894897	303.907410	323.211273	-657.909302	304.849548	238.393295	-639.843628	366.589630	322.693909	-655.581604	317.389069	104.834793	-620.060608	382.598694	116.340286	-558.730652	304.861847	64.549820	-560.219727	543.482788	96.812752	-692.400818	498.497009	65.667686	-617.312866	426.206207	57.268105	-707.117981	
1001	5.0050	497.427277	1501.263184	-349.017242	307.512177	1482.503540	-689.320129	379.545502	1530.801147	-497.857300	509.990417	1459.139771	-567.459961	557.490784	1253.268433	-184.906662	716.480530	1057.046021	-73.918510	210.173111	1209.916260	-783.567932	215.790054	1003.103394	-953.784729	339.699921	1020.326172	-461.142578	367.620148	1089.734741	-678.948730	543.950439	1061.821045	-394.361389	419.751343	1025.614746	-681.365784	572.297485	1014.375916	-446.711548	382.133362	1050.752441	-423.744995	326.485992	1054.271484	-513.671265	515.445068	928.133423	-361.190155	336.182922	922.626831	-683.879517	536.767212	808.824402	-350.875275	542.119507	726.762634	-360.510468	535.772278	637.181091	-375.606293	579.941772	730.464294	-400.142822	505.166779	517.274109	-388.424713	444.909332	492.874664	-477.112854	490.791016	401.853333	-339.273651	485.421387	317.596497	-344.185059	470.389160	229.566040	-353.207306	510.378937	317.168457	-400.564026	447.197815	99.125412	-371.495911	447.589294	122.342232	-459.399261	393.738159	67.864861	-415.848206	651.936462	91.636604	-492.287048	581.473633	50.499519	-391.183990	561.339233	62.254883	-504.546387	320.598145	803.176147	-689.920166	340.312103	716.999878	-690.192322	390.178741	727.082642	-709.999146	356.328552	633.855042	-677.709290	364.033722	520.287170	-654.638367	391.957916	489.687775	-547.434998	305.603577	409.885162	-666.886230	303.880707	323.220673	-657.900818	304.838867	238.389389	-639.832703	366.575256	322.692383	-655.573120	317.379852	104.826393	-620.069153	382.581818	116.334183	-558.723145	304.863373	64.574928	-560.226562	543.468689	96.822083	-692.414551	498.472534	65.675049	-617.296997	426.214966	57.262691	-707.112671	
1002	5.0100	497.419800	1501.265503	-349.019989	307.519958	1482.507935	-689.312378	379.553833	1530.797363	-497.904999	509.996979	1459.139771	-567.461487	557.512573	1253.263306	-184.917114	716.490295	1057.043335	-73.944313	210.190826	1209.885498	-783.628967	215.756363	1003.108948	-953.786987	339.699799	1020.316284	-461.118652	367.602142	1089.725342	-678.942261	543.951538	1061.832886	-394.362518	419.735168	1025.613159	-681.360901	572.277161	1014.359497	-446.714752	382.132172	1050.762573	-423.732910	326.489471	1054.267700	-513.651550	515.446655	928.131714	-361.165771	336.184570	922.630249	-683.874756	536.747192	808.834351	-350.861145	542.112488	726.769287	-360.515442	535.788208	637.204773	-375.616272	579.935852	730.465515	-400.147125	505.161438	517.266724	-388.410583	444.928436	492.886414	-477.124634	490.766479	401.846649	-339.265656	485.378204	317.591553	-344.172119	470.387207	229.554382	-353.202423	510.376740	317.158936	-400.554199	447.210693	99.125092	-371.498230	447.590546	122.342789	-459.398865	393.740387	67.860634	-415.844971	651.936584	91.636765	-492.286285	581.480652	50.521328	-391.187836	561.338318	62.253204	-504.545258	320.587097	803.174683	-689.909241	340.301178	717.007141	-690.195618	390.166260	727.080322	-709.988098	356.314575	633.857605	-677.710693	364.022705	520.283936	-654.629028	391.941071	489.719910	-547.424072	305.587128	409.888702	-666.876709	303.885468	323.210419	-657.881714	304.829163	238.388092	-639.823425	366.560608	322.695526	-655.567749	317.385284	104.824982	-620.075134	382.583313	116.350174	-558.725708	304.858765	64.562111	-560.223938	543.488525	96.812920	-692.407654	498.486298	65.677994	-617.301025	426.219788	57.254257	-707.122131	
1003	5.0150	497.419708	1501.267578	-349.025299	307.490265	1482.517334	-689.314697	379.545502	1530.801147	-497.857300	509.991180	1459.132812	-567.461304	557.506653	1253.270996	-184.931198	716.500977	1057.047729	-73.950554	210.188263	1209.891113	-783.639099	215.724686	1003.117737	-953.788940	339.696442	1020.310425	-461.115295	367.591614	1089.715454	-678.941711	543.941406	1061.836914	-394.354553	419.717957	1025.611694	-681.363586	572.289490	1014.357849	-446.708466	382.127502	1050.760254	-423.726318	326.478058	1054.260376	-513.657654	515.438232	928.124817	-361.169983	336.173462	922.630798	-683.866943	536.733704	808.830872	-350.851196	542.083984	726.753174	-360.489380	535.781921	637.190125	-375.602173	579.920715	730.464355	-400.115784	505.151886	517.288513	-388.423492	444.912354	492.891693	-477.094604	490.776794	401.855957	-339.255493	485.393555	317.595154	-344.170624	470.387726	229.560944	-353.196228	510.358795	317.156525	-400.554077	447.213074	99.100479	-371.497345	447.589844	122.342949	-459.399536	393.738159	67.864861	-415.848206	651.937927	91.639267	-492.288025	581.447144	50.556160	-391.176056	561.334412	62.257000	-504.545380	320.577362	803.175232	-689.898926	340.300049	716.989258	-690.176514	390.158325	727.075989	-709.972656	356.299164	633.842590	-677.683838	364.011658	520.280640	-654.619690	391.919922	489.688538	-547.425720	305.572144	409.889374	-666.862366	303.874908	323.214539	-657.883789	304.822968	238.382538	-639.819458	366.543365	322.695251	-655.560547	317.375488	104.838181	-620.064453	382.575714	116.345032	-558.727966	304.871002	64.548973	-560.231934	543.471008	96.812447	-692.396423	498.471436	65.686279	-617.290222	426.218658	57.257038	-707.118103	
